<?xml version="1.0" encoding="UTF-8"?>
<svg xmlns="http://www.w3.org/2000/svg" xmlns:xlink="http://www.w3.org/1999/xlink" width="240px" height="240px" viewBox="0 0 240 240" version="1.1">
<g id="surface1">
<path style=" stroke:none;fill-rule:nonzero;fill:rgb(20.392157%,65.882355%,32.549021%);fill-opacity:1;" d="M 119.492188 0 C 111.746094 0.00390625 104.632812 4.277344 100.992188 11.113281 C 97.351562 17.953125 97.777344 26.242188 102.097656 32.667969 L 111.054688 23.726562 C 110.757812 22.832031 110.609375 21.898438 110.613281 20.957031 C 110.613281 16.074219 114.570312 12.117188 119.457031 12.117188 C 124.339844 12.117188 128.300781 16.074219 128.300781 20.957031 C 128.300781 25.84375 124.339844 29.800781 119.457031 29.800781 C 118.519531 29.804688 117.589844 29.65625 116.703125 29.359375 L 107.757812 38.304688 C 115.207031 43.355469 125.046875 43.089844 132.210938 37.640625 C 139.375 32.191406 142.257812 22.777344 139.378906 14.25 C 136.496094 5.722656 128.492188 -0.0117188 119.492188 0 Z M 119.492188 0 "/>
<path style=" stroke:none;fill-rule:nonzero;fill:rgb(98.431373%,73.725492%,1.568628%);fill-opacity:1;" d="M 111.15625 61.082031 C 111.167969 54.003906 108.875 47.109375 104.625 41.449219 L 93 53.058594 C 96.636719 59.707031 95.328125 67.972656 89.816406 73.171875 L 96.132812 88.609375 C 105.492188 82.582031 111.152344 72.214844 111.15625 61.082031 Z M 111.15625 61.082031 "/>
<path style=" stroke:none;fill-rule:nonzero;fill:rgb(91.764706%,26.274511%,20.784314%);fill-opacity:1;" d="M 78.675781 77.746094 L 78.371094 77.746094 C 71.242188 77.746094 64.902344 73.214844 62.59375 66.46875 C 60.285156 59.726562 62.519531 52.257812 68.152344 47.890625 C 73.785156 43.523438 81.574219 43.21875 87.53125 47.136719 L 99.039062 35.625 C 87.847656 26.554688 72.046875 25.851562 60.097656 33.902344 C 48.148438 41.949219 42.855469 56.859375 47.054688 70.636719 C 51.257812 84.417969 63.964844 93.839844 78.371094 93.851562 C 80.59375 93.855469 82.8125 93.632812 84.992188 93.195312 Z M 78.675781 77.746094 "/>
<path style=" stroke:none;fill-rule:nonzero;fill:rgb(25.882354%,52.156866%,95.686275%);fill-opacity:1;" d="M 119.9375 91.097656 C 112.660156 91.089844 105.425781 92.152344 98.460938 94.246094 L 107.667969 116.746094 C 111.675781 115.75 115.792969 115.25 119.921875 115.253906 C 143.855469 115.261719 164.449219 132.171875 169.113281 155.644531 C 173.777344 179.117188 161.210938 202.617188 139.097656 211.773438 C 116.988281 220.925781 91.488281 213.1875 78.195312 193.289062 C 64.898438 173.386719 67.511719 146.867188 84.4375 129.945312 C 87.96875 126.425781 92 123.445312 96.398438 121.101562 L 87.292969 98.667969 C 53.339844 115.292969 37.261719 154.75 49.925781 190.371094 C 62.589844 225.992188 99.964844 246.445312 136.792969 237.910156 C 173.625 229.375 198.1875 194.566406 193.894531 157.007812 C 189.597656 119.445312 157.804688 91.085938 120 91.085938 Z M 119.9375 91.097656 "/>
</g>
</svg>
